<svg width="22" height="21" viewBox="0 0 22 21" fill="none" xmlns="http://www.w3.org/2000/svg">
<path d="M3.8027 16.8035C1.4938 15.1447 0 12.64 0 9.8988C0 4.8553 4.9225 0.759998 11 0.759998C17.0775 0.759998 22 4.8553 22 9.8988C22 14.9412 17.0775 19.0365 11 19.0365C9.78196 19.0438 8.56941 18.8729 7.4008 18.5294C7.2996 18.4964 7.1632 18.4964 7.062 18.4964C6.8585 18.4964 6.655 18.5624 6.4845 18.6647L4.0744 20.0518C4.01253 20.0895 3.94298 20.1128 3.8709 20.12C3.77226 20.1194 3.6778 20.0801 3.60785 20.0106C3.53789 19.9411 3.49805 19.8468 3.4969 19.7482C3.4969 19.6459 3.5299 19.5788 3.5651 19.4765C3.5981 19.4435 3.9039 18.3259 4.0744 17.6494C4.0744 17.5812 4.1074 17.48 4.1074 17.4118C4.1074 17.1412 4.0062 16.9388 3.8027 16.8035ZM7.3337 8.3621C8.1224 8.3621 8.7472 7.7373 8.7472 6.9486C8.7472 6.1588 8.1224 5.534 7.3337 5.534C6.5439 5.534 5.9202 6.1588 5.9202 6.9486C5.9202 7.7373 6.5439 8.3621 7.3337 8.3621ZM14.6663 8.3621C15.4561 8.3621 16.0798 7.7373 16.0798 6.9486C16.0798 6.1588 15.4561 5.534 14.6663 5.534C13.8776 5.534 13.2528 6.1588 13.2528 6.9486C13.2528 7.7373 13.8776 8.3621 14.6663 8.3621Z" fill="#1B1919"/>
</svg>
